<?xml version="1.0" encoding="UTF-8" standalone="no"?>
<!-- Created with Inkscape (http://www.inkscape.org/) -->

<svg
   width="331.474mm"
   height="87.331879mm"
   viewBox="0 0 331.474 87.331879"
   version="1.1"
   id="svg1"
   xml:space="preserve"
   xmlns:inkscape="http://www.inkscape.org/namespaces/inkscape"
   xmlns:sodipodi="http://sodipodi.sourceforge.net/DTD/sodipodi-0.dtd"
   xmlns="http://www.w3.org/2000/svg"
   xmlns:svg="http://www.w3.org/2000/svg"><sodipodi:namedview
     id="namedview1"
     pagecolor="#505050"
     bordercolor="#eeeeee"
     borderopacity="1"
     inkscape:showpageshadow="0"
     inkscape:pageopacity="0"
     inkscape:pagecheckerboard="0"
     inkscape:deskcolor="#505050"
     inkscape:document-units="mm"
     inkscape:export-bgcolor="#ffffff00"><inkscape:page
       x="0"
       y="0"
       width="331.474"
       height="87.331879"
       id="page2"
       margin="0"
       bleed="0" /></sodipodi:namedview><defs
     id="defs1" /><g
     inkscape:label="Layer 1"
     inkscape:groupmode="layer"
     id="layer1"
     transform="translate(789.4902,1154.0627)"><path
       style="fill:#F2F2F2;stroke:none"
       d="m -789.49022,-1153.9895 c 0.0677,0.775 0.46024,1.5501 0.70556,2.286 l 1.524,4.572 c 1.60078,4.8024 3.19321,9.6114 4.85331,14.3934 4.91002,14.1434 9.57524,28.3843 14.30957,42.5873 1.85936,5.5781 3.55019,11.2659 5.63249,16.764 0.50528,1.3341 0.9155,2.7106 1.36663,4.064 0.15291,0.4587 0.26576,1.3031 0.62389,1.6422 0.37228,0.3526 1.57008,0.1358 2.05722,0.1358 h 5.75733 19.98133 5.24933 c 0.45835,0 1.51067,0.1959 1.88789,-0.087 0.37575,-0.2818 0.50777,-1.258 0.65211,-1.691 0.48076,-1.4423 0.9867,-2.8754 1.46756,-4.318 1.8355,-5.5065 3.69572,-11.0035 5.53156,-16.51 4.47162,-13.4125 8.88255,-26.8602 13.51935,-40.2167 1.80647,-5.2036 3.53469,-10.4375 5.27664,-15.6633 0.87324,-2.6197 2.03086,-5.2698 2.65289,-7.9587 h -21.16666 -5.50334 l -2.05721,0.087 -0.427,1.0984 -0.87874,2.9633 -3.32781,11.176 -13.12123,44.0266 c -1.8283,-4.7749 -2.99381,-9.9177 -4.46362,-14.8166 l -8.68343,-28.956 -3.42391,-11.43 -0.89409,-2.9633 c -0.0948,-0.3161 -0.15318,-0.895 -0.4428,-1.0984 -0.42717,-0.2999 -1.56305,-0.087 -2.07349,-0.087 h -5.50333 -21.082 m 210.73532,86.4447 v -30.988 l 1.2909,2.2013 2.25334,4.318 8.8808,16.9333 2.75094,5.2494 1.21863,2.199 2.14739,0.087 h 5.75733 21.844 l -2.84299,-5.08 -5.24909,-9.2287 -6.73641,-11.8533 -3.96751,-6.9427 c 2.18806,-0.5062 4.43493,-1.645 6.35,-2.794 4.43005,-2.658 7.89078,-6.4746 10.0492,-11.176 4.71176,-10.2629 2.21134,-23.9578 -6.32387,-31.4718 -5.24402,-4.6166 -12.08873,-6.9643 -18.96533,-7.6298 -3.62479,-0.3508 -7.27887,-0.2684 -10.922,-0.2684 h -17.018 -12.02266 -3.64067 c -0.50976,0 -1.19054,-0.1186 -1.68079,0.027 -0.49318,0.1465 -0.26654,1.5891 -0.26654,2.0051 v 6.5194 27.3473 38.0153 9.3133 2.286 c 2e-5,0.2374 -0.0777,0.6753 0.13576,0.8444 0.36101,0.2859 1.44938,0.087 1.89624,0.087 h 5.08 19.98133 m 93.81066,-86.4447 v 39.9627 12.0226 c 0,2.4586 0.22526,5.0617 -0.45953,7.4507 -1.0962,3.8243 -6.09904,4.4388 -8.76881,1.8594 -2.04161,-1.9726 -2.28633,-5.277 -2.28633,-7.9554 h -26.67 c 0,8.6141 1.89589,17.6977 8.04666,24.13 7.26513,7.5976 17.90677,10.1867 28.10601,9.74 8.56197,-0.3749 17.2413,-2.9988 22.75749,-9.994 6.5764,-8.3396 6.1985,-18.8389 6.1985,-28.8713 v -48.3447 h -26.92399 m -197.27332,0.085 v 21.5053 h 57.48866 v -21.5053 h -57.48866 m 103.46266,37.2533 v -10.668 -2.794 c 0,-0.2818 -0.0995,-0.8141 0.087,-1.0496 0.24472,-0.3089 1.24778,-0.1357 1.60631,-0.1357 h 4.572 c 3.37772,0 7.65169,-0.5936 10.31497,1.9718 2.73351,2.6331 2.8337,8.6334 -0.15497,11.1239 -1.77248,1.4771 -4.16632,1.5516 -6.35,1.5516 h -10.07533 m -103.46266,-4.318 v 20.4047 h 46.228 v -20.4047 h -46.228 m 0,31.75 v 21.6747 h 57.48866 v -21.6747 z"
       id="path1" /></g></svg>
